<svg xmlns="http://www.w3.org/2000/svg" width="800" height="500" viewBox="0 0 800 500">
  <defs>
    <linearGradient id="bg" x1="0%" y1="0%" x2="100%" y2="100%">
      <stop offset="0%" style="stop-color:#0a0a0a"/>
      <stop offset="100%" style="stop-color:#1a1a1a"/>
    </linearGradient>
    <linearGradient id="gold" x1="0%" y1="0%" x2="100%" y2="0%">
      <stop offset="0%" style="stop-color:#c9a84c"/>
      <stop offset="100%" style="stop-color:#e8c96a"/>
    </linearGradient>
  </defs>

  <!-- Background -->
  <rect width="800" height="500" fill="url(#bg)"/>

  <!-- Navbar bar -->
  <rect x="0" y="0" width="800" height="52" fill="#111111"/>
  <text x="36" y="34" font-family="Georgia, serif" font-size="22" font-weight="bold" fill="#c9a84c">BarberStyle BCN</text>
  <rect x="540" y="18" width="70" height="18" rx="3" fill="#1a1a1a"/>
  <rect x="620" y="18" width="60" height="18" rx="3" fill="#1a1a1a"/>
  <rect x="690" y="16" width="76" height="22" rx="4" fill="#c9a84c" opacity="0.9"/>

  <!-- Hero section -->
  <rect x="0" y="52" width="800" height="220" fill="#0d0d0d"/>
  <!-- Gold accent line -->
  <rect x="36" y="96" width="60" height="3" fill="url(#gold)"/>
  <text x="36" y="138" font-family="Georgia, serif" font-size="42" font-weight="bold" fill="#f5f0e8">BARBERÍA</text>
  <text x="36" y="190" font-family="Georgia, serif" font-size="42" font-weight="bold" fill="#c9a84c">DE CONFIANZA</text>
  <text x="36" y="222" font-family="sans-serif" font-size="14" fill="#888">Cortes clásicos y modernos · Barrio de Gràcia · Barcelona</text>

  <!-- Rating badge -->
  <rect x="560" y="110" width="200" height="90" rx="12" fill="#111111"/>
  <text x="636" y="148" font-family="sans-serif" font-size="30" font-weight="bold" fill="#c9a84c">4.9★</text>
  <text x="610" y="172" font-family="sans-serif" font-size="12" fill="#888">+200 reseñas Google</text>
  <rect x="580" y="182" width="68" height="8" rx="4" fill="#c9a84c" opacity="0.8"/>
  <rect x="580" y="182" width="68" height="8" rx="4" fill="#c9a84c" opacity="0.8"/>

  <!-- Services section -->
  <rect x="0" y="272" width="800" height="150" fill="#111111"/>
  <text x="36" y="308" font-family="sans-serif" font-size="11" fill="#c9a84c" letter-spacing="2">NUESTROS SERVICIOS</text>
  <!-- Service cards -->
  <rect x="36" y="318" width="142" height="76" rx="8" fill="#1a1a1a"/>
  <rect x="36" y="318" width="3" height="76" rx="1" fill="#c9a84c"/>
  <text x="52" y="340" font-family="sans-serif" font-size="12" font-weight="600" fill="#f5f0e8">Corte Clásico</text>
  <text x="52" y="360" font-family="sans-serif" font-size="11" fill="#888">Tijera y máquina</text>
  <text x="52" y="382" font-family="sans-serif" font-size="14" font-weight="bold" fill="#c9a84c">desde 18€</text>

  <rect x="192" y="318" width="142" height="76" rx="8" fill="#1a1a1a"/>
  <rect x="192" y="318" width="3" height="76" rx="1" fill="#c9a84c"/>
  <text x="208" y="340" font-family="sans-serif" font-size="12" font-weight="600" fill="#f5f0e8">Barba Completa</text>
  <text x="208" y="360" font-family="sans-serif" font-size="11" fill="#888">Navaja + perfilado</text>
  <text x="208" y="382" font-family="sans-serif" font-size="14" font-weight="bold" fill="#c9a84c">desde 14€</text>

  <rect x="348" y="318" width="142" height="76" rx="8" fill="#1a1a1a"/>
  <rect x="348" y="318" width="3" height="76" rx="1" fill="#c9a84c"/>
  <text x="364" y="340" font-family="sans-serif" font-size="12" font-weight="600" fill="#f5f0e8">Corte + Barba</text>
  <text x="364" y="360" font-family="sans-serif" font-size="11" fill="#888">Pack completo</text>
  <text x="364" y="382" font-family="sans-serif" font-size="14" font-weight="bold" fill="#c9a84c">desde 28€</text>

  <rect x="504" y="318" width="142" height="76" rx="8" fill="#1a1a1a"/>
  <rect x="504" y="318" width="3" height="76" rx="1" fill="#c9a84c"/>
  <text x="520" y="340" font-family="sans-serif" font-size="12" font-weight="600" fill="#f5f0e8">Afeitado Clásico</text>
  <text x="520" y="360" font-family="sans-serif" font-size="11" fill="#888">Navaja recta</text>
  <text x="520" y="382" font-family="sans-serif" font-size="14" font-weight="bold" fill="#c9a84c">desde 22€</text>

  <!-- Footer bar -->
  <rect x="0" y="422" width="800" height="78" fill="#0a0a0a"/>
  <text x="36" y="460" font-family="Georgia, serif" font-size="18" font-weight="bold" fill="#c9a84c">BarberStyle BCN</text>
  <text x="36" y="482" font-family="sans-serif" font-size="11" fill="#555">Demo project — Vue 3 + Vite + Tailwind CSS · alanteixido.dev</text>
  <!-- Tech pills -->
  <rect x="560" y="445" width="44" height="18" rx="9" fill="#1a1a1a"/>
  <text x="568" y="458" font-family="sans-serif" font-size="9" fill="#c9a84c">Vue 3</text>
  <rect x="612" y="445" width="36" height="18" rx="9" fill="#1a1a1a"/>
  <text x="620" y="458" font-family="sans-serif" font-size="9" fill="#c9a84c">Vite</text>
  <rect x="656" y="445" width="58" height="18" rx="9" fill="#1a1a1a"/>
  <text x="663" y="458" font-family="sans-serif" font-size="9" fill="#c9a84c">Tailwind</text>
  <rect x="722" y="445" width="44" height="18" rx="9" fill="#1a1a1a"/>
  <text x="729" y="458" font-family="sans-serif" font-size="9" fill="#c9a84c">AOS</text>
</svg>
